<?xml version="1.0" encoding="UTF-8"?>
<!DOCTYPE svg PUBLIC "-//W3C//DTD SVG 1.1//EN" "http://www.w3.org/Graphics/SVG/1.1/DTD/svg11.dtd">
<!-- Creator: CorelDRAW 2021 (64-Bit) -->
<svg xmlns="http://www.w3.org/2000/svg" xml:space="preserve" width="131px" height="22px" version="1.1" style="shape-rendering:geometricPrecision; text-rendering:geometricPrecision; image-rendering:optimizeQuality; fill-rule:evenodd; clip-rule:evenodd"
viewBox="0 0 131 22"
 xmlns:xlink="http://www.w3.org/1999/xlink"
 xmlns:xodm="http://www.corel.com/coreldraw/odm/2003">
 <defs>
  <style type="text/css">
   <![CDATA[
    .fil0 {fill:#1C1B17}
   ]]>
  </style>
 </defs>
 <g id="Layer_x0020_1">
  <metadata id="CorelCorpID_0Corel-Layer"/>
  <g id="Logotype_FA">
   <path id="و" class="fil0" d="M115.604 2.009l6.97 0c4.798,0.043 7.195,3.14 7.478,6.369 0.166,1.9 -0.823,3.404 -1.93,5.44l-4.275 8.227 -6.192 0.002 3.852 -6.988 -12.269 0 2.282 -4.721 10.577 0.056c2.876,-0.051 3.815,-3.622 -0.096,-3.662l-8.589 -0.067 2.192 -4.656z"/>
   <g id="یـ">
    <polygon class="fil0" points="103.903,17.342 109.346,17.341 107.145,22.046 101.623,22.048 "/>
    <polygon class="fil0" points="97.265,17.342 102.707,17.341 100.506,22.046 94.984,22.048 "/>
    <polygon id="یـ_0" class="fil0" points="108.336,1.992 113.828,1.992 107.233,15.06 97.192,15.062 99.49,10.334 104.383,10.353 "/>
   </g>
   <polygon id="ر" class="fil0" points="94.118,7.462 99.334,7.462 92.207,22.052 87.176,22.052 "/>
   <polygon id="ا" class="fil0" points="88.792,0.455 93.957,0.455 83.509,22.047 78.425,22.045 "/>
   <g id="نـ">
    <polygon id="نـ_1" class="fil0" points="76.606,6.43 81.914,6.43 77.729,15.057 64.938,15.059 67.024,10.353 74.715,10.359 "/>
    <polygon class="fil0" points="79.445,0.461 84.888,0.46 82.687,5.165 77.165,5.166 "/>
   </g>
   <g id="یـ_2">
    <polygon class="fil0" points="63.584,17.342 69.026,17.341 66.826,22.046 61.303,22.048 "/>
    <polygon class="fil0" points="56.945,17.342 62.387,17.341 60.187,22.046 54.665,22.048 "/>
    <polygon id="یـ_3" class="fil0" points="62.683,5.219 68.084,5.219 63.276,15.058 52.719,15.059 47.873,10.359 60.173,10.363 "/>
   </g>
   <polygon id="ک" class="fil0" points="48.741,0.457 55.629,0.457 45.58,10.071 53.126,17.341 50.769,22.045 -0.28,22.048 4.9,17.341 46.737,17.339 42.422,13.141 39.037,16.434 39.037,9.988 "/>
  </g>
 </g>
</svg>
