<?xml version="1.0" encoding="UTF-8"?>
<!DOCTYPE svg PUBLIC "-//W3C//DTD SVG 1.1//EN" "http://www.w3.org/Graphics/SVG/1.1/DTD/svg11.dtd">
<!-- Creator: CorelDRAW 2021 (64-Bit) -->
<svg xmlns="http://www.w3.org/2000/svg" xml:space="preserve" width="131px" height="22px" version="1.1" style="shape-rendering:geometricPrecision; text-rendering:geometricPrecision; image-rendering:optimizeQuality; fill-rule:evenodd; clip-rule:evenodd"
viewBox="0 0 131 22"
 xmlns:xlink="http://www.w3.org/1999/xlink"
 xmlns:xodm="http://www.corel.com/coreldraw/odm/2003">
 <defs>
  <style type="text/css">
   <![CDATA[
    .fil0 {fill:#1C1B17}
   ]]>
  </style>
 </defs>
 <g id="Layer_x0020_1">
  <metadata id="CorelCorpID_0Corel-Layer"/>
  <g id="Logotype_FA">
   <path id="و" class="fil0" d="M-135.616 30.961l6.97 0c4.798,0.043 7.195,3.14 7.478,6.369 0.166,1.9 -0.823,3.404 -1.93,5.44l-4.275 8.227 -6.192 0.002 3.852 -6.988 -12.269 0 2.282 -4.721 10.577 0.056c2.876,-0.051 3.815,-3.622 -0.097,-3.662l-8.589 -0.067 2.193 -4.656z"/>
   <g id="یـ">
    <polygon class="fil0" points="-147.317,46.294 -141.874,46.293 -144.075,50.998 -149.597,51 "/>
    <polygon class="fil0" points="-153.956,46.294 -148.513,46.293 -150.714,50.998 -156.236,51 "/>
    <polygon id="یـ_0" class="fil0" points="-142.884,30.944 -137.392,30.944 -143.987,44.012 -154.028,44.014 -151.73,39.286 -146.837,39.305 "/>
   </g>
   <polygon id="ر" class="fil0" points="-157.102,36.414 -151.887,36.414 -159.013,51.004 -164.044,51.004 "/>
   <polygon id="ا" class="fil0" points="-162.428,29.407 -157.263,29.407 -167.712,50.999 -172.795,50.997 "/>
   <g id="نـ">
    <polygon id="نـ_1" class="fil0" points="-174.614,35.382 -169.306,35.382 -173.491,44.009 -186.283,44.011 -184.196,39.305 -176.505,39.311 "/>
    <polygon class="fil0" points="-171.775,29.413 -166.333,29.412 -168.533,34.117 -174.056,34.118 "/>
   </g>
   <g id="یـ_2">
    <polygon class="fil0" points="-187.636,46.294 -182.194,46.293 -184.394,50.998 -189.917,51 "/>
    <polygon class="fil0" points="-194.275,46.294 -188.833,46.293 -191.033,50.998 -196.556,51 "/>
    <polygon id="یـ_3" class="fil0" points="-188.537,34.171 -183.136,34.171 -187.944,44.01 -198.501,44.011 -203.347,39.311 -191.047,39.315 "/>
   </g>
   <polygon id="ک" class="fil0" points="-202.479,29.409 -195.591,29.409 -205.64,39.023 -198.094,46.293 -200.451,50.997 -251.5,51 -246.32,46.293 -204.483,46.291 -208.798,42.093 -212.184,45.386 -212.184,38.94 "/>
  </g>
  <g id="_2293299603872">
   <polygon id="V" class="fil0" points="-0.087,0.488 5.976,0.488 13.182,16.121 20.837,0.486 32.043,0.487 32.043,5.144 23.994,5.141 15.643,22 10.659,21.999 "/>
   <polygon id="i" class="fil0" points="26.763,6.325 32.043,6.325 32.043,21.999 26.763,21.999 "/>
   <path id="R" class="fil0" d="M35.148 0.487l13.229 0c7.817,0.019 7.533,6.907 7.535,7.39 0.001,1.931 -1.008,4.957 -3.914,6.36l4.772 7.762 -5.778 0 -4.228 -7.15 -11.617 0.008 0 -4.509 11.978 -0.001c3.527,-0.005 3.559,-1.746 3.536,-2.562 -0.019,-0.516 -0.06,-2.646 -3.093,-2.642l-12.42 0 0 -4.656z"/>
   <polygon id="A" class="fil0" points="64.309,0.488 69.467,0.488 80.057,21.999 74.476,21.999 66.858,6.308 60.025,20.304 56.899,15.412 "/>
   <polygon id="N" class="fil0" points="76.774,0.488 82.705,0.488 95.386,15.453 95.386,0.488 100.527,0.488 100.528,21.999 94.546,21.999 81.902,6.953 81.909,18.17 76.774,8.125 "/>
   <g id="i_4">
    <polygon id="i_5" class="fil0" points="103.786,6.325 109.067,6.325 109.067,21.999 103.786,21.999 "/>
    <polygon class="fil0" points="103.784,0.488 109.064,0.488 109.064,5.143 103.784,5.143 "/>
   </g>
   <polygon id="K" class="fil0" points="123.397,0.488 130.257,0.488 119.149,11.309 130.264,22 123.99,22 115.975,14.301 112.505,17.571 112.5,11.057 "/>
  </g>
 </g>
</svg>
